<?xml version="1.0" encoding="UTF-8"?>
<svg version="1.1" xmlns="http://www.w3.org/2000/svg" width="500" height="500">
<path d="M0 0 C165 0 330 0 500 0 C500 165 500 330 500 500 C335 500 170 500 0 500 C0 335 0 170 0 0 Z " fill="#FEFEFE" transform="translate(0,0)"/>
<path d="M0 0 C156.75 0 313.5 0 475 0 C475 75.9 475 151.8 475 230 C318.25 230 161.5 230 0 230 C0 154.1 0 78.2 0 0 Z " fill="#E1E0E0" transform="translate(8,50)"/>
<path d="M0 0 C3.17848607 1.50978088 4.66966805 3.5110047 6.84765625 6.2265625 C11.77962518 12.07963201 18.02099368 16.37526525 24.3984375 20.51171875 C26.59887568 22.26634325 27.47351209 23.59872005 28.5 26.1875 C32.0581296 25.60238536 33.78778845 24.27502665 36.375 21.8125 C38.82103748 19.57482868 40.60572122 18.13675381 43.625 16.6875 C46.64267909 15.11305874 47.26843084 14.20389869 49.125 11.5 C51.18975587 8.89565459 52.12009114 8.25964737 55.44140625 7.62890625 C63.7106601 7.45973981 63.7106601 7.45973981 66.15234375 9.7109375 C66.81943359 10.44183594 66.81943359 10.44183594 67.5 11.1875 C68.61375 11.27 69.7275 11.3525 70.875 11.4375 C74.78140201 12.24572111 75.04342481 12.38100984 77.125 15.4375 C77.63933594 16.31148437 77.63933594 16.31148437 78.1640625 17.203125 C79.52200135 19.35820203 79.52200135 19.35820203 81.81640625 21.49609375 C84.79094925 24.47929626 87.28464969 27.64076782 89.8125 31 C90.26689453 31.59748047 90.72128906 32.19496094 91.18945312 32.81054688 C92.29633917 34.26697588 93.39865264 35.72687817 94.5 37.1875 C97.46175123 36.57472388 98.88058783 35.93377478 101.5 34.1875 C103.77465087 33.57831832 106.07013223 33.04491418 108.375 32.5625 C110.19644531 32.17191406 110.19644531 32.17191406 112.0546875 31.7734375 C118.96364923 30.59844401 121.79909593 31.53413907 127.47265625 35.52734375 C129.86804178 37.48888296 131.30729412 39.32500588 132.5 42.1875 C132.5 42.8475 132.5 43.5075 132.5 44.1875 C133.49 44.5175 134.48 44.8475 135.5 45.1875 C137.03515625 47.18359375 137.03515625 47.18359375 138.5625 49.625 C140.11468524 52.08558881 141.43883462 54.12633462 143.5 56.1875 C145.90255402 56.27795634 145.90255402 56.27795634 148.625 56.0625 C153.97192245 55.95696864 158.24758323 56.78784061 162.5 60.1875 C162.83 61.1775 163.16 62.1675 163.5 63.1875 C162.69175781 63.01605469 161.88351562 62.84460938 161.05078125 62.66796875 C157.58756043 62.19934811 154.49933832 62.24498861 151.02832031 62.40551758 C143.63839863 62.70379664 138.18314718 62.78660244 132.25390625 57.83203125 C131.38572266 57.01798828 131.38572266 57.01798828 130.5 56.1875 C129.39603777 55.35389586 128.29188819 54.52053974 127.1875 53.6875 C124.36976687 51.0663529 122.42215615 48.51430872 120.5 45.1875 C120.5 44.5275 120.5 43.8675 120.5 43.1875 C118.85 43.1875 117.2 43.1875 115.5 43.1875 C115.83 43.909375 116.16 44.63125 116.5 45.375 C117.50603529 48.20447427 117.66977402 50.21645466 117.5 53.1875 C114.53 52.8575 111.56 52.5275 108.5 52.1875 C108.17 53.1775 107.84 54.1675 107.5 55.1875 C103.78386481 56.62600394 101.52036048 56.01040508 98 54.5 C92.22404016 51.70301779 88.35541412 48.32805216 84.5 43.1875 C83.51 44.1775 83.51 44.1775 82.5 45.1875 C81.55598958 43.4296875 80.61197917 41.671875 79.66796875 39.9140625 C78.45236507 37.88247635 78.45236507 37.88247635 75.5 36.1875 C75.3125 33.5625 75.3125 33.5625 75.5 31.1875 C74.51 31.1875 73.52 31.1875 72.5 31.1875 C72.5 29.5375 72.5 27.8875 72.5 26.1875 C70.19 25.8575 67.88 25.5275 65.5 25.1875 C65.5 23.5375 65.5 21.8875 65.5 20.1875 C64.530625 20.950625 63.56125 21.71375 62.5625 22.5 C62.01722656 22.92925781 61.47195313 23.35851562 60.91015625 23.80078125 C59.22844923 25.24433091 59.22844923 25.24433091 58.5 28.1875 C57.345 28.661875 56.19 29.13625 55 29.625 C51.38944408 30.76202585 51.38944408 30.76202585 50.5625 33.375 C50.541875 33.973125 50.52125 34.57125 50.5 35.1875 C49.18 35.5175 47.86 35.8475 46.5 36.1875 C46.83 37.5075 47.16 38.8275 47.5 40.1875 C45.52 40.1875 43.54 40.1875 41.5 40.1875 C42.28427352 41.83686913 43.07765259 43.48191127 43.875 45.125 C44.31585938 46.04152344 44.75671875 46.95804687 45.2109375 47.90234375 C46.29199162 50.31653802 46.29199162 50.31653802 48.5 51.1875 C51.965 48.7125 51.965 48.7125 55.5 46.1875 C55.809375 47.21875 56.11875 48.25 56.4375 49.3125 C58.54092451 54.37515409 62.9114035 56.56132213 67.5 59.1875 C62.50316553 62.51872298 57.35359129 62.51737601 51.5625 61.6875 C45.83288253 60.35914974 41.39625409 57.5952973 37.5 53.1875 C36.24674354 50.39327451 35.87838193 48.26861 35.5 45.1875 C34.84 45.1875 34.18 45.1875 33.5 45.1875 C33.273125 45.744375 33.04625 46.30125 32.8125 46.875 C31.5 49.1875 31.5 49.1875 28.9375 51.6875 C26.50322203 54.18419535 26.16503683 54.97315534 25.5 58.1875 C22.5 60.1875 22.5 60.1875 19.5 60.1875 C19.5 60.8475 19.5 61.5075 19.5 62.1875 C15.83331182 63.04395271 12.50973279 63.26879152 8.75 63.1875 C7.00040022 63.15007541 5.24936974 63.14053705 3.5 63.1875 C3.17 63.5175 2.84 63.8475 2.5 64.1875 C3.923125 64.4040625 3.923125 64.4040625 5.375 64.625 C8.5 65.1875 8.5 65.1875 10.5 66.1875 C11.16 65.8575 11.82 65.5275 12.5 65.1875 C14.625 66.125 14.625 66.125 16.5 67.1875 C13.83677158 69.85072842 12.57893827 69.4409033 8.85757446 69.44819641 C7.65738174 69.45528122 6.45718903 69.46236603 5.22062683 69.46966553 C3.88357507 69.46737149 2.54652366 69.46486176 1.20947266 69.4621582 C-0.19318413 69.46650357 -1.59583853 69.47168613 -2.99848938 69.47764587 C-6.81466014 69.4910676 -10.63073205 69.49161093 -14.44692183 69.48908257 C-17.63035878 69.48801478 -20.81377558 69.49289141 -23.99720824 69.497688 C-31.50726866 69.50879463 -39.01727908 69.50921442 -46.52734375 69.50317383 C-54.2788128 69.49713495 -62.0301003 69.50944014 -69.78153837 69.5307439 C-76.43212874 69.54835108 -83.08266128 69.55436257 -89.7332741 69.55110615 C-93.70729734 69.54929138 -97.68119115 69.55194845 -101.65519333 69.56582069 C-105.39314128 69.57837978 -109.1308061 69.57647337 -112.86874962 69.56340981 C-114.89569712 69.55990941 -116.92265318 69.57123674 -118.9495697 69.58297729 C-120.15540207 69.57596298 -121.36123444 69.56894867 -122.60360718 69.5617218 C-124.17597672 69.56197341 -124.17597672 69.56197341 -125.78011131 69.56223011 C-128.85197876 69.13900646 -130.22725727 68.24450749 -132.5 66.1875 C-132.005 64.7025 -132.005 64.7025 -131.5 63.1875 C-132.30219971 63.19797363 -133.10439941 63.20844727 -133.9309082 63.21923828 C-137.55807372 63.26075767 -141.18518928 63.28681343 -144.8125 63.3125 C-146.07513672 63.32925781 -147.33777344 63.34601563 -148.63867188 63.36328125 C-150.45141602 63.37294922 -150.45141602 63.37294922 -152.30078125 63.3828125 C-153.41622314 63.39328613 -154.53166504 63.40375977 -155.6809082 63.41455078 C-158.5 63.1875 -158.5 63.1875 -161.5 61.1875 C-159.7034799 57.84007779 -158.56513955 57.20848785 -154.875 56.01953125 C-153.41796133 55.67417895 -151.95954007 55.33462317 -150.5 55 C-140.74095709 52.46819234 -135.08293939 47.84249818 -128.015625 40.6640625 C-125.60897029 38.2947782 -123.1398717 36.16614776 -120.5 34.0625 C-119.675 33.39992187 -118.85 32.73734375 -118 32.0546875 C-111.81875853 27.43807278 -107.28966431 25.53836131 -99.5 26.1875 C-97.55078125 27.08203125 -97.55078125 27.08203125 -95.5625 28.1875 C-91.21394968 30.54261429 -88.43024158 30.8236602 -83.5 30.1875 C-81.12660531 28.94920712 -79.51908354 27.87242286 -77.5 26.1875 C-59.7288339 11.40440608 -59.7288339 11.40440608 -49.5 11.1875 C-46.76171875 12.953125 -46.76171875 12.953125 -44.1875 15.4375 C-39.21350987 19.86724467 -35.01298983 21.95836743 -28.5 23.1875 C-28.12875 22.1046875 -28.12875 22.1046875 -27.75 21 C-25.11852404 15.0791791 -21.04352819 11.92098371 -15.625 8.625 C-14.41898429 7.87415796 -13.2132526 7.12285954 -12.0078125 6.37109375 C-11.42225586 6.01104248 -10.83669922 5.65099121 -10.23339844 5.2800293 C-8.52966712 4.20619864 -6.86944434 3.06431439 -5.2109375 1.921875 C-2.5 0.1875 -2.5 0.1875 0 0 Z " fill="#DEDCDD" transform="translate(244.5,210.8125)"/>
<path d="M0 0 C3.17848607 1.50978088 4.66966805 3.5110047 6.84765625 6.2265625 C11.77962518 12.07963201 18.02099368 16.37526525 24.3984375 20.51171875 C26.59887568 22.26634325 27.47351209 23.59872005 28.5 26.1875 C32.0581296 25.60238536 33.78778845 24.27502665 36.375 21.8125 C38.82103748 19.57482868 40.60572122 18.13675381 43.625 16.6875 C46.64267909 15.11305874 47.26843084 14.20389869 49.125 11.5 C51.18975587 8.89565459 52.12009114 8.25964737 55.44140625 7.62890625 C63.7106601 7.45973981 63.7106601 7.45973981 66.15234375 9.7109375 C66.81943359 10.44183594 66.81943359 10.44183594 67.5 11.1875 C68.61375 11.27 69.7275 11.3525 70.875 11.4375 C74.78140201 12.24572111 75.04342481 12.38100984 77.125 15.4375 C77.63933594 16.31148437 77.63933594 16.31148437 78.1640625 17.203125 C79.52200135 19.35820203 79.52200135 19.35820203 81.81640625 21.49609375 C84.79094925 24.47929626 87.28464969 27.64076782 89.8125 31 C90.26689453 31.59748047 90.72128906 32.19496094 91.18945312 32.81054688 C92.29633917 34.26697588 93.39865264 35.72687817 94.5 37.1875 C97.46175123 36.57472388 98.88058783 35.93377478 101.5 34.1875 C103.77465087 33.57831832 106.07013223 33.04491418 108.375 32.5625 C110.19644531 32.17191406 110.19644531 32.17191406 112.0546875 31.7734375 C118.96364923 30.59844401 121.79909593 31.53413907 127.47265625 35.52734375 C129.86804178 37.48888296 131.30729412 39.32500588 132.5 42.1875 C132.5 42.8475 132.5 43.5075 132.5 44.1875 C133.49 44.5175 134.48 44.8475 135.5 45.1875 C137.03515625 47.18359375 137.03515625 47.18359375 138.5625 49.625 C140.11468524 52.08558881 141.43883462 54.12633462 143.5 56.1875 C145.90255402 56.27795634 145.90255402 56.27795634 148.625 56.0625 C153.97192245 55.95696864 158.24758323 56.78784061 162.5 60.1875 C162.83 61.1775 163.16 62.1675 163.5 63.1875 C162.69175781 63.01605469 161.88351562 62.84460938 161.05078125 62.66796875 C157.58756043 62.19934811 154.49933832 62.24498861 151.02832031 62.40551758 C143.63839863 62.70379664 138.18314718 62.78660244 132.25390625 57.83203125 C131.38572266 57.01798828 131.38572266 57.01798828 130.5 56.1875 C129.39603777 55.35389586 128.29188819 54.52053974 127.1875 53.6875 C124.36976687 51.0663529 122.42215615 48.51430872 120.5 45.1875 C120.5 44.5275 120.5 43.8675 120.5 43.1875 C118.85 43.1875 117.2 43.1875 115.5 43.1875 C115.83 43.909375 116.16 44.63125 116.5 45.375 C117.50603529 48.20447427 117.66977402 50.21645466 117.5 53.1875 C114.53 52.8575 111.56 52.5275 108.5 52.1875 C108.17 53.1775 107.84 54.1675 107.5 55.1875 C103.78386481 56.62600394 101.52036048 56.01040508 98 54.5 C92.22404016 51.70301779 88.35541412 48.32805216 84.5 43.1875 C83.51 44.1775 83.51 44.1775 82.5 45.1875 C81.55598958 43.4296875 80.61197917 41.671875 79.66796875 39.9140625 C78.45236507 37.88247635 78.45236507 37.88247635 75.5 36.1875 C75.3125 33.5625 75.3125 33.5625 75.5 31.1875 C74.51 31.1875 73.52 31.1875 72.5 31.1875 C72.5 29.5375 72.5 27.8875 72.5 26.1875 C70.19 25.8575 67.88 25.5275 65.5 25.1875 C65.5 23.5375 65.5 21.8875 65.5 20.1875 C64.530625 20.950625 63.56125 21.71375 62.5625 22.5 C62.01722656 22.92925781 61.47195313 23.35851562 60.91015625 23.80078125 C59.22844923 25.24433091 59.22844923 25.24433091 58.5 28.1875 C57.345 28.661875 56.19 29.13625 55 29.625 C51.38944408 30.76202585 51.38944408 30.76202585 50.5625 33.375 C50.541875 33.973125 50.52125 34.57125 50.5 35.1875 C49.18 35.5175 47.86 35.8475 46.5 36.1875 C46.995 38.1675 46.995 38.1675 47.5 40.1875 C45.52 40.1875 43.54 40.1875 41.5 40.1875 C42.28427352 41.83686913 43.07765259 43.48191127 43.875 45.125 C44.31585938 46.04152344 44.75671875 46.95804687 45.2109375 47.90234375 C46.29199162 50.31653802 46.29199162 50.31653802 48.5 51.1875 C51.965 48.7125 51.965 48.7125 55.5 46.1875 C55.809375 47.21875 56.11875 48.25 56.4375 49.3125 C58.54092451 54.37515409 62.9114035 56.56132213 67.5 59.1875 C62.50316553 62.51872298 57.35359129 62.51737601 51.5625 61.6875 C45.83288253 60.35914974 41.39625409 57.5952973 37.5 53.1875 C36.24674354 50.39327451 35.87838193 48.26861 35.5 45.1875 C34.84 45.1875 34.18 45.1875 33.5 45.1875 C33.273125 45.744375 33.04625 46.30125 32.8125 46.875 C31.5 49.1875 31.5 49.1875 28.9375 51.6875 C26.50322203 54.18419535 26.16503683 54.97315534 25.5 58.1875 C22.5 60.1875 22.5 60.1875 19.5 60.1875 C19.5 60.8475 19.5 61.5075 19.5 62.1875 C15.82612505 63.04048376 12.4552607 63.29539471 8.6875 63.25 C7.71167969 63.24097656 6.73585938 63.23195313 5.73046875 63.22265625 C4.62638672 63.20525391 4.62638672 63.20525391 3.5 63.1875 C3.83 62.1975 4.16 61.2075 4.5 60.1875 C5.16 60.1875 5.82 60.1875 6.5 60.1875 C6.78875 59.07375 7.0775 57.96 7.375 56.8125 C8.5 53.1875 8.5 53.1875 10.5 51.1875 C10.5 49.8675 10.5 48.5475 10.5 47.1875 C11.49 47.1875 12.48 47.1875 13.5 47.1875 C13.5 46.5275 13.5 45.8675 13.5 45.1875 C12.88125 45.14625 12.2625 45.105 11.625 45.0625 C10.92375 44.77375 10.2225 44.485 9.5 44.1875 C8.76919734 42.21003397 8.10578253 40.20677511 7.5 38.1875 C6.2087646 36.56264541 6.2087646 36.56264541 4.5 35.1875 C1.58532441 32.6198096 -0.24615297 30.98288737 -1.4375 27.25 C-1.50811033 23.79009391 -0.69253015 21.41434628 0.5 18.1875 C0.5 16.8675 0.5 15.5475 0.5 14.1875 C-1.95224694 14.29363836 -1.95224694 14.29363836 -4.5 15.1875 C-5.71297649 17.4681707 -5.71297649 17.4681707 -6.5 20.1875 C-7.03625 20.93 -7.5725 21.6725 -8.125 22.4375 C-9.59811471 25.38372942 -9.56697913 26.4413461 -9.375 29.625 C-9.22655692 33.19357161 -9.5713392 34.85927926 -11.9375 37.5625 C-12.783125 38.42875 -13.62875 39.295 -14.5 40.1875 C-14.83 41.1775 -15.16 42.1675 -15.5 43.1875 C-17.76412486 44.37181147 -20.08133088 45.21838514 -22.46875 46.125 C-24.84619715 47.06933179 -24.84619715 47.06933179 -25.5 50.1875 C-26.46679688 50.30867188 -27.43359375 50.42984375 -28.4296875 50.5546875 C-37.33000995 51.6962449 -37.33000995 51.6962449 -46.1875 53.125 C-47.30705078 53.32416016 -47.30705078 53.32416016 -48.44921875 53.52734375 C-50.90697339 54.31850667 -52.4819567 55.5977761 -54.5 57.1875 C-58.30873382 58.72720091 -61.39528047 59.42895409 -65.5 59.1875 C-65.5 55.38405778 -65.34646319 53.21977218 -62.8984375 50.234375 C-58.58862975 46.27401112 -55.13574453 44.78252204 -49.5 43.1875 C-46.76020797 40.36642499 -46.76020797 40.36642499 -44.5 37.1875 C-42.15057257 34.60312983 -39.7482484 32.64059653 -36.875 30.6875 C-34.08891373 28.7532108 -32.82613314 27.34981748 -31.5 24.1875 C-30.16666667 22.85416667 -28.83333333 21.52083333 -27.5 20.1875 C-26.571875 18.6096875 -26.571875 18.6096875 -25.625 17 C-21.90738041 11.59255332 -15.74094142 8.56122825 -10.21728516 5.24780273 C-8.51471304 4.19658427 -6.86388436 3.06303527 -5.21484375 1.9296875 C-2.5 0.1875 -2.5 0.1875 0 0 Z " fill="#080808" transform="translate(244.5,210.8125)"/>
<path d="M0 0 C0.66 0.66 1.32 1.32 2 2 C1.625 4.625 1.625 4.625 1 7 C3.31 7.33 5.62 7.66 8 8 C8 9.65 8 11.3 8 13 C8.99 13 9.98 13 11 13 C11.103125 13.78375 11.20625 14.5675 11.3125 15.375 C11.77595022 18.33045181 11.77595022 18.33045181 15 20 C16.06246527 21.96752828 17.07137808 23.96587579 18 26 C18.66 25.34 19.32 24.68 20 24 C21.37562854 25.28965176 22.70766393 26.62689293 24 28 C24 28.66 24 29.32 24 30 C24.61875 30.28875 25.2375 30.5775 25.875 30.875 C28 32 28 32 30 34 C32.31877816 34.93730572 32.31877816 34.93730572 34.9375 35.6875 C35.81277344 35.95949219 36.68804687 36.23148437 37.58984375 36.51171875 C40.12773116 37.23425697 40.12773116 37.23425697 43 36 C43.495 35.01 43.495 35.01 44 34 C46.97 34.33 49.94 34.66 53 35 C52.01 30.05 52.01 30.05 51 25 C52.65 25 54.3 25 56 25 C57.66796875 26.94140625 57.66796875 26.94140625 59.1875 29.5625 C63.19865702 35.78244393 68.41066722 39.70533361 75 43 C76.35243917 43.07148199 77.70834367 43.08399454 79.0625 43.0625 C79.85914063 43.05476563 80.65578125 43.04703125 81.4765625 43.0390625 C82.30929687 43.02617187 83.14203125 43.01328125 84 43 C85.64576801 42.97452371 87.29161238 42.95347949 88.9375 42.9375 C89.66839844 42.92589844 90.39929688 42.91429687 91.15234375 42.90234375 C93 43 93 43 95 44 C95 44.66 95 45.32 95 46 C95.66 46.495 96.32 46.99 97 47.5 C97.66 47.995 98.32 48.49 99 49 C99 49.66 99 50.32 99 51 C49.83 51 0.66 51 -50 51 C-49.67 50.34 -49.34 49.68 -49 49 C-50.32 48.67 -51.64 48.34 -53 48 C-53.33 48.66 -53.66 49.32 -54 50 C-56.64 48.68 -59.28 47.36 -62 46 C-61.67 45.34 -61.34 44.68 -61 44 C-55.72 44 -50.44 44 -45 44 C-45 43.34 -45 42.68 -45 42 C-43.02 41.34 -41.04 40.68 -39 40 C-38.85884766 38.89591797 -38.85884766 38.89591797 -38.71484375 37.76953125 C-37.89467004 34.59191836 -36.75090067 33.10338515 -34.5625 30.6875 C-33.94503906 29.99011719 -33.32757813 29.29273438 -32.69140625 28.57421875 C-31 27 -31 27 -29 27 C-27 30 -27 30 -26.4375 32.8125 C-24.22884209 37.70995885 -20.87490417 39.89508357 -16 42 C-9.59639874 43.29281678 -4.00604057 43.84730812 2 41 C1.30132812 40.55269531 0.60265625 40.10539062 -0.1171875 39.64453125 C-1.48230469 38.73767578 -1.48230469 38.73767578 -2.875 37.8125 C-3.77992188 37.22082031 -4.68484375 36.62914062 -5.6171875 36.01953125 C-8.22110124 33.81260764 -9.02958682 32.22913351 -10 29 C-11.98 30.65 -13.96 32.3 -16 34 C-21.66935484 28.62903226 -21.66935484 28.62903226 -23 25 C-23 24.01 -23 23.02 -23 22 C-21.02 22 -19.04 22 -17 22 C-17.495 20.02 -17.495 20.02 -18 18 C-17.360625 17.71125 -16.72125 17.4225 -16.0625 17.125 C-13.84793921 16.17176549 -13.84793921 16.17176549 -13 14 C-13.66 13.67 -14.32 13.34 -15 13 C-14.04287109 12.74476563 -14.04287109 12.74476563 -13.06640625 12.484375 C-12.24011719 12.24203125 -11.41382813 11.9996875 -10.5625 11.75 C-9.73878906 11.51796875 -8.91507812 11.2859375 -8.06640625 11.046875 C-7.38449219 10.70140625 -6.70257813 10.3559375 -6 10 C-5.38089541 7.98217233 -5.38089541 7.98217233 -5 6 C-4.01 5.67 -3.02 5.34 -2 5 C-0.78130071 2.49552484 -0.78130071 2.49552484 0 0 Z M-48 46 C-47 48 -47 48 -47 48 Z " fill="#D8D7D8" transform="translate(309,229)"/>
<path d="M0 0 C2.82421875 1.93359375 2.82421875 1.93359375 5.6875 4.4375 C9.12477152 7.54491548 9.12477152 7.54491548 13 10 C13 10.66 13 11.32 13 12 C10.8125 13.5078125 10.8125 13.5078125 8 15.125 C7.071875 15.66382813 6.14375 16.20265625 5.1875 16.7578125 C4.465625 17.16773438 3.74375 17.57765625 3 18 C2.63261719 17.34515625 2.26523438 16.6903125 1.88671875 16.015625 C0.12076818 13.70283547 0.12076818 13.70283547 -2.91796875 13.609375 C-4.53638672 13.67898437 -4.53638672 13.67898437 -6.1875 13.75 C-7.27417969 13.78609375 -8.36085938 13.8221875 -9.48046875 13.859375 C-10.31191406 13.90578125 -11.14335937 13.9521875 -12 14 C-11.94199219 14.59167969 -11.88398438 15.18335938 -11.82421875 15.79296875 C-11.57392922 20.17661109 -11.51665096 22.31762489 -14.125 26 C-17.21992454 28.15299098 -19.27209179 28.73991338 -23 29 C-23 29.66 -23 30.32 -23 31 C-23.66 31 -24.32 31 -25 31 C-25.23460937 31.62390625 -25.46921875 32.2478125 -25.7109375 32.890625 C-27.36823075 35.60255941 -28.6141599 35.88975997 -31.625 36.75 C-32.44226563 36.99234375 -33.25953125 37.2346875 -34.1015625 37.484375 C-34.72804688 37.65453125 -35.35453125 37.8246875 -36 38 C-36 39.32 -36 40.64 -36 42 C-36.66 42 -37.32 42 -38 42 C-38 42.66 -38 43.32 -38 44 C-41.88021936 44.60628427 -43.81844783 43.62526587 -46.9375 41.5 C-50.42991729 39.14742289 -52.70811779 38.46351472 -57 39 C-57 37.68 -57 36.36 -57 35 C-57.99 35 -58.98 35 -60 35 C-60.495 33.02 -60.495 33.02 -61 31 C-61.66 31 -62.32 31 -63 31 C-63.0928125 32.2684375 -63.0928125 32.2684375 -63.1875 33.5625 C-64.3598111 38.52227772 -66.81767633 42.38085663 -70.9375 45.4375 C-73.67016478 46.18277221 -76.18351154 46.1280222 -79 46 C-79 46.66 -79 47.32 -79 48 C-78.01 48.495 -78.01 48.495 -77 49 C-82.42541786 52.28953743 -88.90720971 51.55909055 -95.0625 51.75 C-96.35478516 51.80542969 -97.64707031 51.86085938 -98.97851562 51.91796875 C-100.21408203 51.96050781 -101.44964844 52.00304687 -102.72265625 52.046875 C-103.85453369 52.08651367 -104.98641113 52.12615234 -106.15258789 52.16699219 C-109 52 -109 52 -112 50 C-110.2034799 46.65257779 -109.06513955 46.02098785 -105.375 44.83203125 C-103.91796133 44.48667895 -102.45954007 44.14712317 -101 43.8125 C-91.24095709 41.28069234 -85.58293939 36.65499818 -78.515625 29.4765625 C-76.10897029 27.1072782 -73.6398717 24.97864776 -71 22.875 C-70.175 22.21242187 -69.35 21.54984375 -68.5 20.8671875 C-62.31875853 16.25057278 -57.78966431 14.35086131 -50 15 C-48.05078125 15.89453125 -48.05078125 15.89453125 -46.0625 17 C-41.71394968 19.35511429 -38.93024158 19.6361602 -34 19 C-31.62660531 17.76170712 -30.01908354 16.68492286 -28 15 C-8.67075738 -1.07919298 -8.67075738 -1.07919298 0 0 Z " fill="#080808" transform="translate(195,222)"/>
<path d="M0 0 C18.73960217 0 18.73960217 0 24.34765625 5.16015625 C26.59233785 9.01803693 26.55552543 12.05532986 26.4375 16.4375 C26.44458984 17.17548828 26.45167969 17.91347656 26.45898438 18.67382812 C26.40379968 23.44942678 25.80375502 26.97515929 23 31 C17 34 17 34 0 34 C0 22.78 0 11.56 0 0 Z " fill="#333332" transform="translate(224,293)"/>
<path d="M0 0 C3.37030477 1.22268575 6.2168626 2.74665283 8.16821289 5.86962891 C9.63129482 9.61687075 9.41020661 13.39622962 9.4375 17.375 C9.47037109 18.21289062 9.50324219 19.05078125 9.53710938 19.9140625 C9.57450527 24.23838805 9.38269976 27.11021437 6.59765625 30.5390625 C2.21478253 34.69125865 -1.20538734 34.33747832 -7.07421875 34.28125 C-10 34 -10 34 -13.125 32.3125 C-18.28807706 25.94470496 -17.86391945 17.73516069 -17.30761719 9.91503906 C-16.74477405 6.41111717 -15.06921829 4.35755091 -12.5078125 2.03125 C-8.54686951 -0.67778873 -4.66465889 -0.55640539 0 0 Z " fill="#2E2D2D" transform="translate(320,293)"/>
<path d="M0 0 C17 0 17 0 24 4 C25.7183093 7.4366186 25.38792805 11.2344225 25 15 C23.625 17.5625 23.625 17.5625 22 19 C21.34 19 20.68 19 20 19 C20.41572266 19.99580078 20.41572266 19.99580078 20.83984375 21.01171875 C21.20207031 21.89472656 21.56429687 22.77773438 21.9375 23.6875 C22.29714844 24.55761719 22.65679687 25.42773438 23.02734375 26.32421875 C23.9570312 28.88179265 24.54162625 31.3221323 25 34 C22.36 34 19.72 34 17 34 C16.16209211 32.21046815 15.32980604 30.41830305 14.5 28.625 C14.0359375 27.62726563 13.571875 26.62953125 13.09375 25.6015625 C12 23 12 23 12 21 C10.68 21 9.36 21 8 21 C8 25.29 8 29.58 8 34 C5.36 34 2.72 34 0 34 C0 22.78 0 11.56 0 0 Z " fill="#333332" transform="translate(191,293)"/>
<path d="M0 0 C2.64 0 5.28 0 8 0 C8 4.29 8 8.58 8 13 C10.97 13 13.94 13 17 13 C17 8.71 17 4.42 17 0 C19.64 0 22.28 0 25 0 C25 11.22 25 22.44 25 34 C22.36 34 19.72 34 17 34 C17 29.71 17 25.42 17 21 C14.03 21 11.06 21 8 21 C8 25.29 8 29.58 8 34 C5.36 34 2.72 34 0 34 C0 22.78 0 11.56 0 0 Z " fill="#403F3F" transform="translate(141,293)"/>
<path d="M0 0 C17 0 17 0 24 4 C25.85855282 7.71710563 25.57908439 11.95277281 25 16 C22.47323961 19.34625024 20.96066458 20.67977847 17 22 C15.43881572 22.06740865 13.8749748 22.08514456 12.3125 22.0625 C10.889375 22.041875 9.46625 22.02125 8 22 C8 25.96 8 29.92 8 34 C5.36 34 2.72 34 0 34 C0 22.78 0 11.56 0 0 Z " fill="#2C2C2B" transform="translate(271,293)"/>
<path d="M0 0 C7.59 0 15.18 0 23 0 C23 2.31 23 4.62 23 7 C17.72 7 12.44 7 7 7 C7 9.31 7 11.62 7 14 C10.63 14 14.26 14 18 14 C18 15.98 18 17.96 18 20 C14.37 20 10.74 20 7 20 C7 22.31 7 24.62 7 27 C12.28 27 17.56 27 23 27 C23 29.31 23 31.62 23 34 C15.41 34 7.82 34 0 34 C0 22.78 0 11.56 0 0 Z " fill="#2E2D2C" transform="translate(369,293)"/>
<path d="M0 0 C8.58 0 17.16 0 26 0 C26 2.31 26 4.62 26 7 C23.03 7 20.06 7 17 7 C17 15.91 17 24.82 17 34 C14.36 34 11.72 34 9 34 C9 25.09 9 16.18 9 7 C6.03 7 3.06 7 0 7 C0 4.69 0 2.38 0 0 Z " fill="#2B2A28" transform="translate(107,293)"/>
<path d="M0 0 C5.28 0 10.56 0 16 0 C16.33 1.32 16.66 2.64 17 4 C17.66 4.33 18.32 4.66 19 5 C19 5.66 19 6.32 19 7 C18.34 7 17.68 7 17 7 C17 6.34 17 5.68 17 5 C16.01 5.66 15.02 6.32 14 7 C12.02 7 10.04 7 8 7 C8 13.6 8 20.2 8 27 C10.97 27 13.94 27 17 27 C17.38133299 28.9914056 17.71325582 30.99279077 18 33 C17.67 33.33 17.34 33.66 17 34 C11.39 34 5.78 34 0 34 C0 22.78 0 11.56 0 0 Z " fill="#312F2D" transform="translate(224,293)"/>
<path d="M0 0 C2.64 0 5.28 0 8 0 C8 8.91 8 17.82 8 27 C13.28 27 18.56 27 24 27 C24 29.31 24 31.62 24 34 C16.08 34 8.16 34 0 34 C0 22.78 0 11.56 0 0 Z " fill="#282827" transform="translate(337,293)"/>
<path d="M0 0 C2.68860931 -0.10887507 5.37273158 -0.18770594 8.0625 -0.25 C8.81466797 -0.28351563 9.56683594 -0.31703125 10.34179688 -0.3515625 C16.0602074 -0.4505826 19.30517213 0.70324181 24 4 C25.72105424 7.44210849 25.51474617 11.23633647 25 15 C23 17.5625 23 17.5625 21 19 C20.31292445 16.50935112 20 14.62113708 20 12 C19.43796875 12.32742188 18.8759375 12.65484375 18.296875 12.9921875 C15.73140036 14.11785494 14.03157723 14.2068111 11.25 14.125 C10.45078125 14.10695313 9.6515625 14.08890625 8.828125 14.0703125 C8.22484375 14.04710937 7.6215625 14.02390625 7 14 C7 13.34 7 12.68 7 12 C6.34 12 5.68 12 5 12 C4.67 12.66 4.34 13.32 4 14 C3.896875 13.360625 3.79375 12.72125 3.6875 12.0625 C3.460625 11.381875 3.23375 10.70125 3 10 C2.01 9.67 1.02 9.34 0 9 C0 6.03 0 3.06 0 0 Z " fill="#343332" transform="translate(191,293)"/>
<path d="M0 0 C2.31 0 4.62 0 7 0 C7 4.29 7 8.58 7 13 C10.3 13 13.6 13 17 13 C17.33 14.98 17.66 16.96 18 19 C14.37 19 10.74 19 7 19 C7 23.62 7 28.24 7 33 C4.69 33 2.38 33 0 33 C0 22.11 0 11.22 0 0 Z " fill="#292928" transform="translate(141,294)"/>
<path d="M0 0 C2.64 0 5.28 0 8 0 C8 11.22 8 22.44 8 34 C5.36 34 2.72 34 0 34 C0 22.78 0 11.56 0 0 Z " fill="#2F2E2E" transform="translate(174,293)"/>
<path d="M0 0 C3 0.25 3 0.25 5 2.25 C5.22552238 4.94162425 5.3243329 7.49669744 5.3125 10.1875 C5.32861328 10.91646484 5.34472656 11.64542969 5.36132812 12.39648438 C5.36619667 17.70807101 5.36619667 17.70807101 3.640625 20.26171875 C2 21.25 2 21.25 -0.5625 21.125 C-3 20.25 -3 20.25 -5 17.25 C-5.19458614 14.68317988 -5.279098 12.25054851 -5.25 9.6875 C-5.25773437 9.00236328 -5.26546875 8.31722656 -5.2734375 7.61132812 C-5.24527569 0.43710631 -5.24527569 0.43710631 0 0 Z " fill="#F7F6F6" transform="translate(316,299.75)"/>
<path d="M0 0 C6.49840764 -0.36783439 6.49840764 -0.36783439 8.875 1.375 C10 3 10 3 11 5 C12.32 4.67 13.64 4.34 15 4 C15.66 5.65 16.32 7.3 17 9 C11.40626154 14.8961027 11.40626154 14.8961027 6.73828125 15.09765625 C5.93777344 15.08605469 5.13726562 15.07445312 4.3125 15.0625 C3.10013672 15.04896484 3.10013672 15.04896484 1.86328125 15.03515625 C0.94095703 15.01775391 0.94095703 15.01775391 0 15 C0.33 14.01 0.66 13.02 1 12 C0.01 11.67 -0.98 11.34 -2 11 C-1.67 10.34 -1.34 9.68 -1 9 C-0.77532169 7.46331135 -0.59203195 5.92031946 -0.4375 4.375 C-0.35371094 3.55773437 -0.26992188 2.74046875 -0.18359375 1.8984375 C-0.12300781 1.27195312 -0.06242187 0.64546875 0 0 Z " fill="#393837" transform="translate(279,300)"/>
<path d="M0 0 C7 0 7 0 8.91796875 1.0625 C10.57823179 4.03538977 10.35817409 6.62714427 10.3125 10 C10.30863281 11.2375 10.30476562 12.475 10.30078125 13.75 C10 17 10 17 8 20 C5.36 20 2.72 20 0 20 C0 13.4 0 6.8 0 0 Z " fill="#F3F3F2" transform="translate(232,300)"/>
<path d="M0 0 C2.94790035 0.9919211 4.45545797 2.02668169 7 4 C8.4375 7.25 8.4375 7.25 9 10 C8.01 10.33 7.02 10.66 6 11 C5.01 10.34 4.02 9.68 3 9 C2.67 12.3 2.34 15.6 2 19 C2.99 19.33 3.98 19.66 5 20 C6.3125 22.3125 6.3125 22.3125 7 25 C6.125 27.3125 6.125 27.3125 5 29 C1.125 27.25 1.125 27.25 0 25 C-0.04602641 22.30457817 -0.04680816 19.63130951 0 16.9375 C0.04584426 14.28540969 0.0470164 11.65348806 0 9 C-1.00836062 7.76732652 -1.00836062 7.76732652 -3.06640625 7.90234375 C-4.30197266 7.91974609 -4.30197266 7.91974609 -5.5625 7.9375 C-6.38878906 7.94652344 -7.21507812 7.95554687 -8.06640625 7.96484375 C-9.02353516 7.98224609 -9.02353516 7.98224609 -10 8 C-10.33 7.01 -10.66 6.02 -11 5 C-11.66 5 -12.32 5 -13 5 C-13.33 5.66 -13.66 6.32 -14 7 C-14 4 -14 4 -12.0625 1.8125 C-7.90978693 -0.64522814 -4.71505487 -0.78987244 0 0 Z " fill="#2D2C2C" transform="translate(320,293)"/>
<path d="M0 0 C8.58 0 17.16 0 26 0 C26 2.31 26 4.62 26 7 C19.9453125 7.1953125 19.9453125 7.1953125 18 7 C17.34 6.34 16.68 5.68 16 5 C15.34 5.66 14.68 6.32 14 7 C14 7.99 14 8.98 14 10 C13.01 10.33 12.02 10.66 11 11 C11 9.68 11 8.36 11 7 C7.37 7 3.74 7 0 7 C0 4.69 0 2.38 0 0 Z " fill="#373735" transform="translate(107,293)"/>
<path d="M0 0 C2.64 0 5.28 0 8 0 C8 0.33 8 0.66 8 1 C5.69 1 3.38 1 1 1 C1.33 10.9 1.66 20.8 2 31 C2.33 30.34 2.66 29.68 3 29 C7.30639269 26.64507015 11.53514772 26.76399807 16.3125 26.875 C17.05306641 26.88402344 17.79363281 26.89304687 18.55664062 26.90234375 C20.37123467 26.92575787 22.18566071 26.96162385 24 27 C24 29.31 24 31.62 24 34 C16.08 34 8.16 34 0 34 C0 22.78 0 11.56 0 0 Z " fill="#353535" transform="translate(337,293)"/>
<path d="M0 0 C0.99 0.33 1.98 0.66 3 1 C2.85769192 2.41702513 2.71099254 3.8336096 2.5625 5.25 C2.48128906 6.03890625 2.40007812 6.8278125 2.31640625 7.640625 C2 10 2 10 1.37109375 12.13671875 C0.79737652 15.01738316 2.51282925 16.58334753 4 19 C3.67 19.99 3.34 20.98 3 22 C1.02 21.01 -0.96 20.02 -3 19 C-3.33 19.99 -3.66 20.98 -4 22 C-7 22 -7 22 -9 21 C-9.32730209 15.43586442 -9.47066458 11.62755278 -6 7 C-5.505 6.113125 -5.01 5.22625 -4.5 4.3125 C-3 2 -3 2 0 0 Z " fill="#D4D4D4" transform="translate(243,224)"/>
<path d="M0 0 C0.33 0.66 0.66 1.32 1 2 C1.99 1.67 2.98 1.34 4 1 C4 1.66 4 2.32 4 3 C3.34 3 2.68 3 2 3 C1.67 4.65 1.34 6.3 1 8 C1.66 8.33 2.32 8.66 3 9 C3.625 11.5625 3.625 11.5625 4 14 C5.32 13.67 6.64 13.34 8 13 C7.67 17.62 7.34 22.24 7 27 C4.36 27 1.72 27 -1 27 C-1.02892385 22.87501462 -1.04677267 18.75005515 -1.0625 14.625 C-1.07087891 13.449375 -1.07925781 12.27375 -1.08789062 11.0625 C-1.09111328 9.94101562 -1.09433594 8.81953125 -1.09765625 7.6640625 C-1.10289307 6.62717285 -1.10812988 5.5902832 -1.11352539 4.52197266 C-1 2 -1 2 0 0 Z " fill="#282726" transform="translate(272,300)"/>
<path d="M0 0 C0.66 0 1.32 0 2 0 C2.66 2.31 3.32 4.62 4 7 C4.99 4.69 5.98 2.38 7 0 C7.99 0 8.98 0 10 0 C10.66 2.64 11.32 5.28 12 8 C12.99 5.36 13.98 2.72 15 0 C15.66 0 16.32 0 17 0 C16.52396226 2.12570312 16.04407402 4.25054427 15.5625 6.375 C15.29566406 7.55835938 15.02882813 8.74171875 14.75390625 9.9609375 C14 13 14 13 13 15 C12.34 15 11.68 15 11 15 C10.34 12.69 9.68 10.38 9 8 C7.79371992 10.33214148 6.8345262 12.49642139 6 15 C5.01 15 4.02 15 3 15 C2.49363393 13.25183142 1.99515381 11.50137737 1.5 9.75 C1.2215625 8.77546875 0.943125 7.8009375 0.65625 6.796875 C0 4 0 4 0 0 Z " fill="#414141" transform="translate(301,346)"/>
<path d="M0 0 C0.99 0 1.98 0 3 0 C3.64836042 1.74906531 4.29358784 3.49929219 4.9375 5.25 C5.29714844 6.22453125 5.65679687 7.1990625 6.02734375 8.203125 C6.81379655 10.46457161 7.47251601 12.66796552 8 15 C7.01 15 6.02 15 5 15 C5 14.01 5 13.02 5 12 C2.02934491 12.34227572 2.02934491 12.34227572 -1 13 C-1.33 13.66 -1.66 14.32 -2 15 C-2.66 15 -3.32 15 -4 15 C-2.07289294 4.44191344 -2.07289294 4.44191344 0 0 Z " fill="#4F4F4F" transform="translate(204,346)"/>
<path d="M0 0 C0.66 0 1.32 0 2 0 C1.773125 0.886875 1.54625 1.77375 1.3125 2.6875 C0.94020359 6.63384198 1.90334443 7.76765599 4 11 C3.67 11.99 3.34 12.98 3 14 C1.02 13.01 -0.96 12.02 -3 11 C-3.33 11.99 -3.66 12.98 -4 14 C-7 14 -7 14 -9 13 C-9 11.68 -9 10.36 -9 9 C-7.36368108 7.95107762 -5.69514137 6.95093297 -4 6 C-3.67 5.01 -3.34 4.02 -3 3 C-2.34 3 -1.68 3 -1 3 C-0.67 2.01 -0.34 1.02 0 0 Z " fill="#D1D0D0" transform="translate(243,232)"/>
<path d="M0 0 C0.66 0 1.32 0 2 0 C2 1.98 2 3.96 2 6 C3.98 6 5.96 6 8 6 C8 4.02 8 2.04 8 0 C8.66 0 9.32 0 10 0 C10 4.95 10 9.9 10 15 C9.34 15 8.68 15 8 15 C8 13.02 8 11.04 8 9 C6.02 9 4.04 9 2 9 C2 10.98 2 12.96 2 15 C1.34 15 0.68 15 0 15 C0 10.05 0 5.1 0 0 Z " fill="#646464" transform="translate(265,346)"/>
<path d="M0 0 C0 3.96 0 7.92 0 12 C-2.64 12 -5.28 12 -8 12 C-8 10.02 -8 8.04 -8 6 C-6.68 5.34 -5.36 4.68 -4 4 C-4.66 3.67 -5.32 3.34 -6 3 C-1.125 0 -1.125 0 0 0 Z " fill="#292929" transform="translate(279,315)"/>
<path d="M0 0 C0.66 0.33 1.32 0.66 2 1 C2.33 1.99 2.66 2.98 3 4 C3.99 4.33 4.98 4.66 6 5 C6 5.66 6 6.32 6 7 C5.01 7.495 5.01 7.495 4 8 C3.6342387 9.32480472 3.3064369 10.66022938 3 12 C2.34859204 13.43362072 1.6603073 14.85101812 0.9375 16.25 C0.57527344 16.95640625 0.21304688 17.6628125 -0.16015625 18.390625 C-0.43730469 18.92171875 -0.71445313 19.4528125 -1 20 C-1.66 19.34 -2.32 18.68 -3 18 C-2.96712417 15.27130593 -2.43602229 12.7033382 -2 10 C-1.34 10 -0.68 10 0 10 C0 9.34 0 8.68 0 8 C-0.99 8 -1.98 8 -3 8 C-2.67 7.01 -2.34 6.02 -2 5 C-1.34 5.33 -0.68 5.66 0 6 C0 4.02 0 2.04 0 0 Z " fill="#CBCACA" transform="translate(252,251)"/>
<path d="M0 0 C1.98 0.66 3.96 1.32 6 2 C3.44601719 6.16204606 1.04945647 9.22931926 -3 12 C-3.66 12 -4.32 12 -5 12 C-5 10.68 -5 9.36 -5 8 C-6.32 7.34 -7.64 6.68 -9 6 C-3.375 2 -3.375 2 0 2 C0 1.34 0 0.68 0 0 Z " fill="#CFCFCF" transform="translate(209,232)"/>
<path d="M0 0 C0 0.66 0 1.32 0 2 C0.56203125 1.82597656 1.1240625 1.65195313 1.703125 1.47265625 C4.24556755 0.94946654 6.18452337 1.09795162 8.75 1.4375 C9.94882812 1.59025391 9.94882812 1.59025391 11.171875 1.74609375 C11.77515625 1.82988281 12.3784375 1.91367188 13 2 C13 2.33 13 2.66 13 3 C11.93072266 2.9690625 11.93072266 2.9690625 10.83984375 2.9375 C4.83570258 3.02749342 4.83570258 3.02749342 -0.2890625 5.84765625 C-1.99128107 7.83357792 -3.54851932 9.8252559 -5 12 C-5.66 11.67 -6.32 11.34 -7 11 C-7 7.56169885 -6.62599243 4.38035912 -6 1 C-4 0 -4 0 0 0 Z " fill="#CECCCD" transform="translate(295,216)"/>
<path d="M0 0 C0.66 0 1.32 0 2 0 C2.33 1.98 2.66 3.96 3 6 C4.65 4.02 6.3 2.04 8 0 C8.99 0.33 9.98 0.66 11 1 C10.319375 1.5775 9.63875 2.155 8.9375 2.75 C6.77948663 4.74233508 6.77948663 4.74233508 7.0625 6.875 C8.28063924 9.6361156 9.60204614 12.32565348 11 15 C8.00675737 13.9024777 7.15389099 13.32317108 5.75 10.375 C5.5025 9.59125 5.255 8.8075 5 8 C4.01 8.495 4.01 8.495 3 9 C2.34227572 12.02934491 2.34227572 12.02934491 2 15 C1.34 15 0.68 15 0 15 C0 10.05 0 5.1 0 0 Z " fill="#424242" transform="translate(219,346)"/>
<path d="M0 0 C6.75 -0.125 6.75 -0.125 9 1 C9.04254356 2.99954746 9.04080783 5.00041636 9 7 C8 8 8 8 6.15234375 8.09765625 C4.1015625 8.06510417 2.05078125 8.03255208 0 8 C0 5.36 0 2.72 0 0 Z " fill="#F4F3F1" transform="translate(279,300)"/>
<path d="M0 0 C3.3 0 6.6 0 10 0 C10 0.66 10 1.32 10 2 C7.36 2 4.72 2 2 2 C2 3.65 2 5.3 2 7 C3.65 7 5.3 7 7 7 C7 7.33 7 7.66 7 8 C5.35 8 3.7 8 2 8 C2 9.65 2 11.3 2 13 C4.64 13 7.28 13 10 13 C10 13.66 10 14.32 10 15 C6.7 15 3.4 15 0 15 C0 10.05 0 5.1 0 0 Z " fill="#333333" transform="translate(284,346)"/>
<path d="M0 0 C5.61 0 11.22 0 17 0 C17 0.33 17 0.66 17 1 C14.69 1.33 12.38 1.66 10 2 C9.67 2.99 9.34 3.98 9 5 C6.10441559 6.4477922 4.25811062 7 1 7 C0.67 7.66 0.34 8.32 0 9 C0 6.03 0 3.06 0 0 Z " fill="#41403E" transform="translate(271,293)"/>
<path d="M0 0 C0.66 0.66 1.32 1.32 2 2 C1.625 4.625 1.625 4.625 1 7 C3.31 7.33 5.62 7.66 8 8 C7.6875 9.9375 7.6875 9.9375 7 12 C6.01 12.33 5.02 12.66 4 13 C3.34 11.35 2.68 9.7 2 8 C0.02463255 8.34786708 0.02463255 8.34786708 -2 9 C-2.33 9.66 -2.66 10.32 -3 11 C-3 10.34 -3 9.68 -3 9 C-3.66 9 -4.32 9 -5 9 C-5.33 9.99 -5.66 10.98 -6 12 C-6.66 11.34 -7.32 10.68 -8 10 C-7.34 10 -6.68 10 -6 10 C-5.896875 9.360625 -5.79375 8.72125 -5.6875 8.0625 C-5.460625 7.381875 -5.23375 6.70125 -5 6 C-4.01 5.67 -3.02 5.34 -2 5 C-0.78130071 2.49552484 -0.78130071 2.49552484 0 0 Z " fill="#C9C8C9" transform="translate(309,229)"/>
<path d="M0 0 C1.00289063 0.10183594 2.00578125 0.20367187 3.0390625 0.30859375 C3.80992187 0.39238281 4.58078125 0.47617188 5.375 0.5625 C5.21 1.366875 5.045 2.17125 4.875 3 C4.34308161 5.2909443 4.34308161 5.2909443 4.375 6.5625 C3.06162604 7.5885734 1.72835895 8.58977325 0.375 9.5625 C-0.2025 8.82 -0.78 8.0775 -1.375 7.3125 C-3.34753526 4.90162357 -5.38544282 2.72207299 -7.625 0.5625 C-4.89657939 -0.80171031 -3.01546682 -0.31557211 0 0 Z " fill="#D2D0D1" transform="translate(330.625,228.4375)"/>
<path d="M0 0 C0.94875 0.04125 1.8975 0.0825 2.875 0.125 C3.535 1.775 4.195 3.425 4.875 5.125 C4.215 5.125 3.555 5.125 2.875 5.125 C2.545 4.465 2.215 3.805 1.875 3.125 C0.555 3.125 -0.765 3.125 -2.125 3.125 C-2.125 6.095 -2.125 9.065 -2.125 12.125 C-0.805 12.125 0.515 12.125 1.875 12.125 C2.205 11.465 2.535 10.805 2.875 10.125 C3.535 10.125 4.195 10.125 4.875 10.125 C4.215 11.775 3.555 13.425 2.875 15.125 C0 15.25 0 15.25 -3.125 15.125 C-5.125 13.125 -5.125 13.125 -5.390625 10.59375 C-5.38546875 9.6140625 -5.3803125 8.634375 -5.375 7.625 C-5.38015625 6.6453125 -5.3853125 5.665625 -5.390625 4.65625 C-4.97669255 0.71171724 -3.88936012 0.1555744 0 0 Z " fill="#3E3E3E" transform="translate(252.125,345.875)"/>
<path d="M0 0 C2.475 0.99 2.475 0.99 5 2 C5 4.31 5 6.62 5 9 C7.64 9 10.28 9 13 9 C13 9.33 13 9.66 13 10 C11.906875 10.309375 10.81375 10.61875 9.6875 10.9375 C7.44592006 11.58337897 5.2130649 12.2623117 3 13 C1.9375 11.125 1.9375 11.125 1 9 C1.33 8.34 1.66 7.68 2 7 C1.01 6.67 0.02 6.34 -1 6 C-1.8125 4.0625 -1.8125 4.0625 -2 2 C-1.34 1.34 -0.68 0.68 0 0 Z " fill="#D0CFCF" transform="translate(181,246)"/>
<path d="M0 0 C6.75 -0.125 6.75 -0.125 9 1 C9.042721 2.66611905 9.04063832 4.33382885 9 6 C8 7 8 7 6.15234375 7.09765625 C4.1015625 7.06510417 2.05078125 7.03255208 0 7 C0 4.69 0 2.38 0 0 Z " fill="#F4F4F2" transform="translate(199,300)"/>
<path d="M0 0 C0.66 0 1.32 0 2 0 C2 3.63 2 7.26 2 11 C-0.31 11 -2.62 11 -5 11 C-5.36666667 5.5 -5.36666667 5.5 -3.625 3.125 C-2 2 -2 2 0 2 C0 1.34 0 0.68 0 0 Z " fill="#2A2A29" transform="translate(196,316)"/>
<path d="M0 0 C0.66 0 1.32 0 2 0 C2.33 1.32 2.66 2.64 3 4 C3.99 4 4.98 4 6 4 C6.33 5.65 6.66 7.3 7 9 C6.01 9 5.02 9 4 9 C3.34 9.66 2.68 10.32 2 11 C-1.625 11.125 -1.625 11.125 -5 11 C-4.72285156 10.45730469 -4.44570312 9.91460937 -4.16015625 9.35546875 C-3.79792969 8.64003906 -3.43570313 7.92460937 -3.0625 7.1875 C-2.52302734 6.12595703 -2.52302734 6.12595703 -1.97265625 5.04296875 C-0.89269484 2.88189715 -0.89269484 2.88189715 0 0 Z " fill="#D5D3D4" transform="translate(132,253)"/>
<path d="M0 0 C0.66 0 1.32 0 2 0 C2.66 2.31 3.32 4.62 4 7 C4.66 5.35 5.32 3.7 6 2 C6.33 2.66 6.66 3.32 7 4 C7.66 4.33 8.32 4.66 9 5 C8.01 8.3 7.02 11.6 6 15 C5.01 15 4.02 15 3 15 C2.49363393 13.25183142 1.99515381 11.50137737 1.5 9.75 C1.2215625 8.77546875 0.943125 7.8009375 0.65625 6.796875 C0 4 0 4 0 0 Z " fill="#464646" transform="translate(301,346)"/>
<path d="M0 0 C1.32 0 2.64 0 4 0 C4.33 1.32 4.66 2.64 5 4 C12.59 4 20.18 4 28 4 C28 4.33 28 4.66 28 5 C24.06782815 5.19255579 20.13529426 5.37122901 16.2019043 5.53710938 C14.20653467 5.6241695 12.21165305 5.72218873 10.21679688 5.8203125 C8.33637695 5.89765625 8.33637695 5.89765625 6.41796875 5.9765625 C5.26063232 6.02893066 4.1032959 6.08129883 2.91088867 6.13525391 C0 6 0 6 -3 4 C-1.75 2 -1.75 2 0 0 Z " fill="#303030" transform="translate(86,268)"/>
<path d="M0 0 C7.75 -0.125 7.75 -0.125 10 1 C10 1.66 10 2.32 10 3 C10.66 3.495 11.32 3.99 12 4.5 C12.66 4.995 13.32 5.49 14 6 C14 6.66 14 7.32 14 8 C10.37 8 6.74 8 3 8 C3 7.34 3 6.68 3 6 C3.99 6 4.98 6 6 6 C6 4.68 6 3.36 6 2 C3.03 1.505 3.03 1.505 0 1 C0 0.67 0 0.34 0 0 Z " fill="#CACACA" transform="translate(394,272)"/>
<path d="M0 0 C0.33 0 0.66 0 1 0 C1 2.64 1 5.28 1 8 C1.99 8.33 2.98 8.66 4 9 C5.3125 11.3125 5.3125 11.3125 6 14 C5.125 16.3125 5.125 16.3125 4 18 C0.125 16.25 0.125 16.25 -1 14 C-0.91161539 11.62216895 -0.75653579 9.24654854 -0.5625 6.875 C-0.46066406 5.59367187 -0.35882813 4.31234375 -0.25390625 2.9921875 C-0.12822266 1.51105469 -0.12822266 1.51105469 0 0 Z " fill="#393937" transform="translate(321,304)"/>
<path d="M0 0 C1.2578125 2.11328125 1.2578125 2.11328125 2 4 C-1.9492568 3.44894091 -5.34920174 2.61064629 -9 1 C-9 0.67 -9 0.34 -9 0 C-11.64 -0.33 -14.28 -0.66 -17 -1 C-17 -1.33 -17 -1.66 -17 -2 C-10.84401618 -3.23119676 -5.59438106 -3.21502812 0 0 Z " fill="#312F30" transform="translate(406,270)"/>
<path d="M0 0 C1.65 1.65 3.3 3.3 5 5 C5.45375 4.175 5.9075 3.35 6.375 2.5 C6.91125 1.675 7.4475 0.85 8 0 C8.66 0 9.32 0 10 0 C9.566875 0.928125 9.566875 0.928125 9.125 1.875 C7.58288195 6.15866124 6.81601453 10.52928212 6 15 C5.34 15 4.68 15 4 15 C3.87882813 14.38511719 3.75765625 13.77023437 3.6328125 13.13671875 C3.46523437 12.32847656 3.29765625 11.52023437 3.125 10.6875 C2.96257812 9.88699219 2.80015625 9.08648437 2.6328125 8.26171875 C2.05521001 5.74698882 2.05521001 5.74698882 0 3 C0 2.01 0 1.02 0 0 Z " fill="#444444" transform="translate(183,346)"/>
<path d="M0 0 C2.31 0.33 4.62 0.66 7 1 C5.25 5.875 5.25 5.875 3 7 C0 7.1875 0 7.1875 -3 7 C-3.66 6.34 -4.32 5.68 -5 5 C-5 4.34 -5 3.68 -5 3 C-3.35 2.34 -1.7 1.68 0 1 C0 0.67 0 0.34 0 0 Z " fill="#DEDEDE" transform="translate(301,273)"/>
<path d="M0 0 C2.125 0.9375 2.125 0.9375 4 2 C4 3.98 4 5.96 4 8 C-0.24645065 8 -2.38524772 6.18249194 -6 4 C-4.03617993 2.49440461 -2.21736634 1.10868317 0 0 Z " fill="#D3D1D2" transform="translate(372,240)"/>
<path d="M0 0 C-1.32 2.64 -2.64 5.28 -4 8 C-5.65 8 -7.3 8 -9 8 C-8.34 7.67 -7.68 7.34 -7 7 C-6.34786708 4.97536745 -6.34786708 4.97536745 -6 3 C-6.33 3.33 -6.66 3.66 -7 4 C-7.66 3.01 -8.32 2.02 -9 1 C-5.19495213 -0.79682816 -4.29399165 -1.07349791 0 0 Z " fill="#CACACA" transform="translate(313,272)"/>
<path d="M0 0 C1.65 0 3.3 0 5 0 C5.66 1.65 6.32 3.3 7 5 C5.02 5.99 5.02 5.99 3 7 C3 8.32 3 9.64 3 11 C1.35 11 -0.3 11 -2 11 C-0.68 10.67 0.64 10.34 2 10 C1.34 6.7 0.68 3.4 0 0 Z " fill="#BCBCBC" transform="translate(360,254)"/>
<path d="M0 0 C4.455 0.99 4.455 0.99 9 2 C9 2.33 9 2.66 9 3 C7.35 3.33 5.7 3.66 4 4 C3.67 5.65 3.34 7.3 3 9 C1.02 9 -0.96 9 -3 9 C-3.33 8.01 -3.66 7.02 -4 6 C-3.34 5.566875 -2.68 5.13375 -2 4.6875 C-1.01 3.8521875 -1.01 3.8521875 0 3 C0 2.01 0 1.02 0 0 Z " fill="#CECBCC" transform="translate(381,271)"/>
<path d="M0 0 C0.66 0 1.32 0 2 0 C2 2.31 2 4.62 2 7 C4.31 7 6.62 7 9 7 C9 7.33 9 7.66 9 8 C6.69 8 4.38 8 2 8 C2 10.31 2 12.62 2 15 C1.34 15 0.68 15 0 15 C0 10.05 0 5.1 0 0 Z " fill="#2A2A2A" transform="translate(265,346)"/>
<path d="M0 0 C0 3.65312394 -1.22099564 4.66028687 -3.56640625 7.3046875 C-5.07003446 9.08282005 -6.33487433 10.93785082 -7.625 12.875 C-8.800625 14.421875 -8.800625 14.421875 -10 16 C-10.99 16 -11.98 16 -13 16 C-11.85004126 12.55012377 -10.54940423 11.54940423 -8 9 C-6.70443575 7.22208722 -5.46539443 5.41688737 -4.24609375 3.5859375 C-3 2 -3 2 0 0 Z " fill="#151515" transform="translate(225,222)"/>
<path d="M0 0 C-0.6875 2.875 -0.6875 2.875 -2 6 C-4.625 7.375 -4.625 7.375 -7 8 C-7.36275695 3.52599758 -7.36275695 3.52599758 -5.75 1.1875 C-4 0 -4 0 0 0 Z " fill="#D7D7D7" transform="translate(241,233)"/>
<path d="M0 0 C2.25 0.25 2.25 0.25 4 1 C4.33 3.64 4.66 6.28 5 9 C3.68 8.34 2.36 7.68 1 7 C1 6.01 1 5.02 1 4 C-0.65 4 -2.3 4 -4 4 C-2.25 1.9375 -2.25 1.9375 0 0 Z " fill="#282725" transform="translate(202,309)"/>
<path d="M0 0 C0.33 0.99 0.66 1.98 1 3 C2.65 3 4.3 3 6 3 C6 2.34 6 1.68 6 1 C6.66 1 7.32 1 8 1 C8.66 2.98 9.32 4.96 10 7 C9.01 7 8.02 7 7 7 C7 6.01 7 5.02 7 4 C4.02934491 4.34227572 4.02934491 4.34227572 1 5 C0.67 5.66 0.34 6.32 0 7 C-0.66 7 -1.32 7 -2 7 C-1.125 1.125 -1.125 1.125 0 0 Z " fill="#3D3D3D" transform="translate(202,354)"/>
<path d="M0 0 C0.33 0.66 0.66 1.32 1 2 C1.99 2 2.98 2 4 2 C4 2.66 4 3.32 4 4 C1.36 4.99 -1.28 5.98 -4 7 C-4.99 5.68 -5.98 4.36 -7 3 C-5.5459375 2.5359375 -5.5459375 2.5359375 -4.0625 2.0625 C-1.15934208 1.30476658 -1.15934208 1.30476658 0 0 Z " fill="#D2D0D1" transform="translate(391,260)"/>
<path d="M0 0 C0.66 0 1.32 0 2 0 C4 3 4 3 3.625 5.1875 C3.41875 5.785625 3.2125 6.38375 3 7 C2.34 6.34 1.68 5.68 1 5 C0.01 6.485 0.01 6.485 -1 8 C-2.32 7.34 -3.64 6.68 -5 6 C-3.38405168 3.95880212 -1.7143618 1.95927063 0 0 Z " fill="#CAC8C9" transform="translate(278,256)"/>
<path d="M0 0 C0.33 0 0.66 0 1 0 C1.33 2.31 1.66 4.62 2 7 C3.32 7 4.64 7 6 7 C6.33 6.34 6.66 5.68 7 5 C7.66 5 8.32 5 9 5 C8.34 6.65 7.68 8.3 7 10 C4.125 10.1875 4.125 10.1875 1 10 C-1.56687367 6.1496895 -0.83288724 4.41430237 0 0 Z " fill="#505050" transform="translate(248,351)"/>
<path d="M0 0 C2.475 0.495 2.475 0.495 5 1 C5 1.66 5 2.32 5 3 C5.99 3.33 6.98 3.66 8 4 C7.01 4.99 6.02 5.98 5 7 C3.29115995 5.37660195 1.62553283 3.70680947 0 2 C0 1.34 0 0.68 0 0 Z " fill="#CCCCCC" transform="translate(288,256)"/>
<path d="M0 0 C0.66 0.66 1.32 1.32 2 2 C1.34 2 0.68 2 0 2 C0 2.99 0 3.98 0 5 C-1.98 5.33 -3.96 5.66 -6 6 C-6.66 5.01 -7.32 4.02 -8 3 C-5.06872538 1.04581692 -3.44165321 0.35299007 0 0 Z " fill="#D4D2D3" transform="translate(318,217)"/>
<path d="M0 0 C0 3.96 0 7.92 0 12 C-2 9 -2 9 -1.625 5.8125 C-1.41875 4.884375 -1.2125 3.95625 -1 3 C-1.66 4.65 -2.32 6.3 -3 8 C-3.12375 7.360625 -3.2475 6.72125 -3.375 6.0625 C-3.684375 5.0415625 -3.684375 5.0415625 -4 4 C-4.66 3.67 -5.32 3.34 -6 3 C-1.125 0 -1.125 0 0 0 Z " fill="#343332" transform="translate(279,315)"/>
<path d="M0 0 C0.33 0.66 0.66 1.32 1 2 C2.32 1.67 3.64 1.34 5 1 C5.33 1.99 5.66 2.98 6 4 C4.54536519 4.38909985 3.08608793 4.76088029 1.625 5.125 C0.81289063 5.33382812 0.00078125 5.54265625 -0.8359375 5.7578125 C-1.55007813 5.83773437 -2.26421875 5.91765625 -3 6 C-3.66 5.34 -4.32 4.68 -5 4 C-4.360625 3.525625 -3.72125 3.05125 -3.0625 2.5625 C-1.11706694 1.16261274 -1.11706694 1.16261274 0 0 Z " fill="#CECECE" transform="translate(348,240)"/>
<path d="M0 0 C0.66 0.33 1.32 0.66 2 1 C1.01 1.33 0.02 1.66 -1 2 C-1 3.32 -1 4.64 -1 6 C-2.98 6.66 -4.96 7.32 -7 8 C-7 7.34 -7 6.68 -7 6 C-6.34 6 -5.68 6 -5 6 C-5 4.68 -5 3.36 -5 2 C-2.625 0.9375 -2.625 0.9375 0 0 Z " fill="#CDCCCC" transform="translate(164,258)"/>
<path d="M0 0 C0.99 0.33 1.98 0.66 3 1 C2.01 1.495 2.01 1.495 1 2 C0.34786708 4.02463255 0.34786708 4.02463255 0 6 C0.66 6.33 1.32 6.66 2 7 C1.34 7.66 0.68 8.32 0 9 C-1.32 7.02 -2.64 5.04 -4 3 C-2 1 -2 1 0 0 Z " fill="#D6D4D5" transform="translate(260,217)"/>
<path d="M0 0 C1 1 1 1 1.0625 3.5625 C1.041875 4.366875 1.02125 5.17125 1 6 C-0.98 5.34 -2.96 4.68 -5 4 C-5 3.34 -5 2.68 -5 2 C-5.66 1.67 -6.32 1.34 -7 1 C-4.51588385 -0.24205807 -2.74800896 -0.14092354 0 0 Z " fill="#D3D1D2" transform="translate(404,264)"/>
<path d="M0 0 C0.33 0.99 0.66 1.98 1 3 C3.64 3 6.28 3 9 3 C9 3.66 9 4.32 9 5 C5.7 5 2.4 5 -1 5 C-0.67 3.35 -0.34 1.7 0 0 Z " fill="#3A3A3A" transform="translate(285,356)"/>
<path d="M0 0 C0.33 1.98 0.66 3.96 1 6 C-0.65 6.33 -2.3 6.66 -4 7 C-4 6.01 -4 5.02 -4 4 C-4.66 3.34 -5.32 2.68 -6 2 C-2.25 0 -2.25 0 0 0 Z " fill="#242424" transform="translate(211,306)"/>
<path d="M0 0 C0.99 0.99 1.98 1.98 3 3 C1 5 1 5 -1 6 C-1 6.66 -1 7.32 -1 8 C-1.66 8 -2.32 8 -3 8 C-3.33 6.68 -3.66 5.36 -4 4 C-3.01 3.67 -2.02 3.34 -1 3 C-0.67 2.01 -0.34 1.02 0 0 Z " fill="#262626" transform="translate(320,319)"/>
<path d="M0 0 C1.33333333 1.33333333 2.66666667 2.66666667 4 4 C1 6 1 6 -1.1875 5.625 C-1.785625 5.41875 -2.38375 5.2125 -3 5 C-3 4.01 -3 3.02 -3 2 C-2.01 1.34 -1.02 0.68 0 0 Z " fill="#262425" transform="translate(309,297)"/>
<path d="M0 0 C1.65 0 3.3 0 5 0 C5.33 0.99 5.66 1.98 6 3 C5.01 3 4.02 3 3 3 C3 3.99 3 4.98 3 6 C2.01 6 1.02 6 0 6 C0 4.02 0 2.04 0 0 Z " fill="#303030" transform="translate(107,294)"/>
<path d="M0 0 C0 0.33 0 0.66 0 1 C-1.258125 1.103125 -2.51625 1.20625 -3.8125 1.3125 C-7.13957417 1.69609156 -7.13957417 1.69609156 -9.875 3.5625 C-10.24625 4.036875 -10.6175 4.51125 -11 5 C-11.66 5 -12.32 5 -13 5 C-13.33 5.66 -13.66 6.32 -14 7 C-14 4 -14 4 -12.0625 1.8125 C-7.95142865 -0.62058305 -4.6603705 -0.36551926 0 0 Z " fill="#464445" transform="translate(320,293)"/>
<path d="M0 0 C0.66 0 1.32 0 2 0 C2.33 1.32 2.66 2.64 3 4 C3.99 4 4.98 4 6 4 C6.33 5.65 6.66 7.3 7 9 C6.34 9 5.68 9 5 9 C5 7.68 5 6.36 5 5 C3.02 5.33 1.04 5.66 -1 6 C-0.67 4.02 -0.34 2.04 0 0 Z " fill="#B0AEAF" transform="translate(132,253)"/>
<path d="M0 0 C0.99 0.33 1.98 0.66 3 1 C3 2.32 3 3.64 3 5 C3.66 5.33 4.32 5.66 5 6 C0.72290301 6 -0.55930376 5.29379749 -4 3 C-2.68 2.34 -1.36 1.68 0 1 C0 0.67 0 0.34 0 0 Z " fill="#C5C5C5" transform="translate(266,225)"/>
<path d="M0 0 C0 1.98 0 3.96 0 6 C-0.598125 5.835 -1.19625 5.67 -1.8125 5.5 C-4.11344336 4.8885876 -4.11344336 4.8885876 -7 5 C-2.25 0 -2.25 0 0 0 Z " fill="#272727" transform="translate(166,320)"/>
<path d="M0 0 C2.5654594 2.5654594 2.54046087 4.47686668 3 8 C1.35 8 -0.3 8 -2 8 C-1.34 5.36 -0.68 2.72 0 0 Z " fill="#DCDCDC" transform="translate(205,349)"/>
<path d="M0 0 C0.66 1.32 1.32 2.64 2 4 C2.66 4 3.32 4 4 4 C7 5 7 5 8 7 C5.36 7 2.72 7 0 7 C0 4.69 0 2.38 0 0 Z " fill="#323232" transform="translate(158,320)"/>
<path d="M0 0 C2.64 0 5.28 0 8 0 C8.33 0.99 8.66 1.98 9 3 C7.02 3.33 5.04 3.66 3 4 C3 3.34 3 2.68 3 2 C2.01 1.34 1.02 0.68 0 0 Z " fill="#D0D0D0" transform="translate(293,272)"/>
<path d="M0 0 C0.99 0.33 1.98 0.66 3 1 C-1.75 5.875 -1.75 5.875 -4 7 C-3.67 5.02 -3.34 3.04 -3 1 C-2.01 1.33 -1.02 1.66 0 2 C0 1.34 0 0.68 0 0 Z " fill="#CECECE" transform="translate(106,257)"/>
<path d="M0 0 C1.22589844 0.15275391 1.22589844 0.15275391 2.4765625 0.30859375 C3.41628906 0.43427734 3.41628906 0.43427734 4.375 0.5625 C1.70833333 1.89583333 -0.95833333 3.22916667 -3.625 4.5625 C-3.625 3.5725 -3.625 2.5825 -3.625 1.5625 C-4.615 1.2325 -5.605 0.9025 -6.625 0.5625 C-4.10446405 -0.69776798 -2.7707902 -0.35624445 0 0 Z " fill="#D6D5D5" transform="translate(241.625,209.4375)"/>
<path d="M0 0 C-1.8125 2 -1.8125 2 -4 4 C-4.99 4 -5.98 4 -7 4 C-7 2.68 -7 1.36 -7 0 C-4.3333581 -1.33332095 -2.83319697 -0.67102033 0 0 Z " fill="#353535" transform="translate(326,323)"/>
<path d="M0 0 C1.65 0.33 3.3 0.66 5 1 C5.33 1.99 5.66 2.98 6 4 C3.03 3.505 3.03 3.505 0 3 C0 2.01 0 1.02 0 0 Z " fill="#131213" transform="translate(402,270)"/>
<path d="M0 0 C2.64 0.33 5.28 0.66 8 1 C7.67 1.99 7.34 2.98 7 4 C5.68 4 4.36 4 3 4 C3 3.34 3 2.68 3 2 C2.01 2 1.02 2 0 2 C0 1.34 0 0.68 0 0 Z " fill="#E7E5E6" transform="translate(232,50)"/>
<path d="M0 0 C0.33 0.66 0.66 1.32 1 2 C1.66 2.33 2.32 2.66 3 3 C2.34 5.31 1.68 7.62 1 10 C0.34 9.34 -0.32 8.68 -1 8 C-0.96712417 5.27130593 -0.43602229 2.7033382 0 0 Z " fill="#636363" transform="translate(307,348)"/>
<path d="M0 0 C0.66 0 1.32 0 2 0 C1.34 3.3 0.68 6.6 0 10 C-0.66 9.34 -1.32 8.68 -2 8 C-1.69347955 5.0574037 -1.32728846 2.65457692 0 0 Z " fill="#4A4A4A" transform="translate(316,346)"/>
<path d="M0 0 C0.99 0.33 1.98 0.66 3 1 C3 1.66 3 2.32 3 3 C4.32 3.66 5.64 4.32 7 5 C6.01 6.485 6.01 6.485 5 8 C5 7.34 5 6.68 5 6 C4.01 5.67 3.02 5.34 2 5 C2 4.01 2 3.02 2 2 C1.34 2 0.68 2 0 2 C0 1.34 0 0.68 0 0 Z " fill="#CDCBCC" transform="translate(330,256)"/>
<path d="M0 0 C0.66 0.33 1.32 0.66 2 1 C1.67 2.32 1.34 3.64 1 5 C0.34 5 -0.32 5 -1 5 C-1.33 5.66 -1.66 6.32 -2 7 C-2.66 5.35 -3.32 3.7 -4 2 C-2.125 0.9375 -2.125 0.9375 0 0 Z " fill="#CAC8C9" transform="translate(379,248)"/>
<path d="M0 0 C1.5 1.125 1.5 1.125 3 3 C3.1875 6.1875 3.1875 6.1875 3 9 C2.34 9 1.68 9 1 9 C1 8.01 1 7.02 1 6 C0.34 6 -0.32 6 -1 6 C-0.67 4.02 -0.34 2.04 0 0 Z " fill="#CFCDCE" transform="translate(250,246)"/>
<path d="M0 0 C0.99 0 1.98 0 3 0 C2.67 0.99 2.34 1.98 2 3 C2.38932856 5.14255793 2.38932856 5.14255793 3 7 C-0.465 5.02 -0.465 5.02 -4 3 C-2.68 2.67 -1.36 2.34 0 2 C0 1.34 0 0.68 0 0 Z " fill="#BDBDBD" transform="translate(196,219)"/>
<path d="M0 0 C0.66 0.99 1.32 1.98 2 3 C1.01 3.99 0.02 4.98 -1 6 C-1 5.34 -1 4.68 -1 4 C-2.32 3.34 -3.64 2.68 -5 2 C-3.35 1.34 -1.7 0.68 0 0 Z " fill="#CBCBCB" transform="translate(352,265)"/>
<path d="M0 0 C2 1 2 1 3 3 C2.0625 5.625 2.0625 5.625 1 8 C-1 6 -1 6 -1.1875 3.4375 C-1 1 -1 1 0 0 Z " fill="#CFCDCE" transform="translate(250,263)"/>
<path d="M0 0 C1.65 1.65 3.3 3.3 5 5 C3.68 5.33 2.36 5.66 1 6 C-0.0625 4.125 -0.0625 4.125 -1 2 C-0.67 1.34 -0.34 0.68 0 0 Z " fill="#C7C5C6" transform="translate(272,232)"/>
<path d="M0 0 C0.66 0.66 1.32 1.32 2 2 C1.01 2.495 1.01 2.495 0 3 C0 2.01 0 1.02 0 0 Z M-2 0 C-1.34 1.32 -0.68 2.64 0 4 C-1.32 4.33 -2.64 4.66 -4 5 C-4 3.68 -4 2.36 -4 1 C-3.34 0.67 -2.68 0.34 -2 0 Z " fill="#E2E2E2" transform="translate(238,236)"/>
<path d="M0 0 C0 3 0 3 -2.5 5.6875 C-3.325 6.450625 -4.15 7.21375 -5 8 C-5.66 7.67 -6.32 7.34 -7 7 C-4.78071806 4.09197539 -3.07030857 2.04687238 0 0 Z " fill="#2D2D2D" transform="translate(225,222)"/>
</svg>
